# xmcd CD database file generated by OrangeCD 6.1
#
# Track frame offsets:
#	150
#	24910
#	37127
#	61302
#	73762
#	91107
#	112875
#	128187
#	150152
#	164900
#	185650
#	201507
#	221410
#	241115
#	263895
#	278305
#	308000
#
# Disc length: 4265 seconds
#
# Revision: 0
# Processed by: cddbd v1.5.2PL0 Copyright (c) Steve Scherf et al.
# Submitted via: OrangeCD 6.1
#
DISCID=e710a711
DTITLE=Captain Beefheart - Introducing... Captain Beefheart
DYEAR=2003
DGENRE=
TTITLE0=Safe As Milk
TTITLE1=Upon the My-O-My
TTITLE2=Son of Mirror Man - Mere Man
TTITLE3=Party of Specials Things to do
TTITLE4=Floppy Boot Stomp
TTITLE5=Tropical Hot Dog Night
TTITLE6=Hot Head
TTITLE7=This is the Day
TTITLE8=You Know You're a Man
TTITLE9=Ice Cream for Crow
TTITLE10=Pompadour Swamp
TTITLE11=Suction Prints
TTITLE12=Semi Multi-Coloured Caucasian
TTITLE13=Gimmie Dat Harp Boy
TTITLE14=Making Love to a Vampire with a Monkey on my Knee
TTITLE15=Sheriff of Hong Kong
TTITLE16=Witch Doctor Life
EXTD=
EXTT0=
EXTT1=
EXTT2=
EXTT3=
EXTT4=
EXTT5=
EXTT6=
EXTT7=
EXTT8=
EXTT9=
EXTT10=
EXTT11=
EXTT12=
EXTT13=
EXTT14=
EXTT15=
EXTT16=
PLAYORDER=
